<svg xmlns="http://www.w3.org/2000/svg" xmlns:xlink="http://www.w3.org/1999/xlink" width="841" height="44" viewBox="0 0 841 44" fill="none"><g opacity="1"  transform="translate(0 0)  rotate(0)"><rect fill="#010108" opacity="0.3" transform="translate(0 0)  rotate(0)" x="0" y="0" width="841" height="44" /><mask id="bg-mask-0" fill="white"><use transform="translate(0 0)  rotate(0)" xlink:href="#path_0"></use></mask><g mask="url(#bg-mask-0)" ><path  id="Rectangle 15" style="fill:#19FCDE; opacity:0.2;" d="M831,42v3h-796v-3z"></path><g opacity="1"  transform="translate(829 41)  rotate(0)"><path id="Rectangle 16" fill-rule="evenodd" style="fill:#19FCDE" opacity="1" d="M0 3L2 3L3 0L1 0L0 3Z"></path><path id="Rectangle 16" fill-rule="evenodd" style="fill:#19FCDE" opacity="1" d="M4.13965 3L6.13965 3L7.13965 0L5.13965 0L4.13965 3Z"></path><path id="Rectangle 16" fill-rule="evenodd" style="fill:#19FCDE" opacity="1" d="M8.29004 3L10.29 3L11.29 0L9.29004 0L8.29004 3Z"></path></g><path id="Rectangle 17" fill-rule="evenodd" style="fill:#19FCDE" opacity="0.6" d="M10.1152 44L16.9852 44L17.9852 41L11.1152 41L10.1152 44Z"></path><path id="Rectangle 17" fill-rule="evenodd" style="fill:#19FCDE" opacity="0.6" d="M17.8887 44L24.7587 44L25.7587 41L18.8887 41L17.8887 44Z"></path><path id="Rectangle 17" fill-rule="evenodd" style="fill:#19FCDE" opacity="0.6" d="M25.6611 44L32.5311 44L33.5311 41L26.6611 41L25.6611 44Z"></path></g></g><defs><rect id="path_0" x="0" y="0" width="841" height="44" /></defs></svg>